<?xml version="1.0" standalone="no"?>
<!DOCTYPE svg PUBLIC "-//W3C//DTD SVG 20010904//EN"
 "http://www.w3.org/TR/2001/REC-SVG-20010904/DTD/svg10.dtd">
<svg version="1.0" xmlns="http://www.w3.org/2000/svg"
 width="1080.000000pt" height="1080.000000pt" viewBox="0 0 1080.000000 1080.000000"
 preserveAspectRatio="xMidYMid meet">
<metadata>
Created by potrace 1.14, written by Peter Selinger 2001-2017
</metadata>
<g transform="translate(0.000000,1080.000000) scale(0.100000,-0.100000)"
fill="#000000" stroke="none">
<path d="M100 8105 c0 -8 1 -15 3 -15 27 -1 663 -132 668 -137 13 -15 182
-308 286 -498 197 -358 412 -811 1084 -2285 697 -1528 875 -1931 1000 -2257
70 -182 75 -192 100 -193 25 0 29 7 69 123 46 136 163 433 235 602 79 183
1497 3348 1600 3571 138 296 314 642 407 796 43 73 81 134 83 136 2 2 149 35
327 73 178 38 333 71 346 74 91 22 -56 25 -1108 25 -998 0 -1130 -2 -1130 -15
0 -8 3 -15 8 -15 45 -2 1133 -138 1138 -142 11 -12 -122 -392 -246 -703 -193
-484 -919 -2107 -1145 -2560 -170 -341 -321 -618 -338 -619 -11 -1 -148 247
-307 559 -192 374 -898 1930 -1085 2389 -141 347 -344 921 -330 934 4 5 956
141 988 142 4 0 7 7 7 15 0 13 -154 15 -1330 15 -1176 0 -1330 -2 -1330 -15z
m2160 -2362 c557 -1231 1018 -2247 1023 -2259 7 -16 -5 -52 -55 -162 -35 -78
-66 -142 -69 -142 -3 0 -12 12 -19 28 -34 73 -2144 4711 -2156 4740 l-14 32
138 0 138 0 1014 -2237z"/>
<path d="M7890 8102 c0 -16 52 -24 502 -80 276 -34 503 -64 505 -65 7 -8 43
-360 57 -562 39 -546 41 -653 41 -1990 0 -1240 -1 -1326 -19 -1425 -50 -288
-139 -477 -292 -627 -136 -132 -310 -231 -494 -281 -85 -23 -113 -26 -270 -26
-247 0 -393 36 -624 153 l-129 66 -195 453 c-193 445 -196 452 -224 452 -27 0
-29 -2 -23 -32 3 -18 39 -282 79 -586 41 -304 75 -555 78 -557 11 -11 292 -78
419 -99 199 -34 474 -64 654 -72 420 -18 817 80 1110 274 379 251 591 605 677
1131 19 120 21 185 28 1396 4 723 12 1341 19 1435 30 450 69 882 82 890 4 3
183 34 398 70 344 57 391 67 391 82 0 17 -65 18 -1385 18 -1319 0 -1385 -1
-1385 -18z m1490 -1844 c0 -948 -5 -1806 -10 -1907 -24 -473 -132 -794 -345
-1019 -225 -239 -507 -362 -923 -403 -105 -10 -125 -10 -133 2 -5 8 -9 16 -9
19 0 3 55 11 123 18 269 26 454 105 626 268 191 180 312 418 373 737 22 112
22 114 25 2060 l4 1947 134 0 135 0 0 -1722z"/>
</g>
</svg>
